<svg xmlns="http://www.w3.org/2000/svg" viewBox="0 0 74.78 75.01"><defs><style>.cls-1{fill:#0d0d0f;}</style></defs><title>fACEBOOK BLACK</title><g id="Layer_2" data-name="Layer 2"><g id="Layer_1-2" data-name="Layer 1"><path class="cls-1" d="M74.78,12.79V62A12.75,12.75,0,0,1,62,75H44.32V46H53.9l1.5-11.08H44.32V27.7c0-3.19.85-5.32,5.53-5.32h6V12.15c-1.07,0-4.69-.43-8.73-.43-8.53,0-14.5,5.33-14.5,14.91v8.31H23V46h9.58V75H12.79A12.88,12.88,0,0,1,0,62V12.79A12.83,12.83,0,0,1,12.79,0H62A12.69,12.69,0,0,1,74.78,12.79Z"/></g></g></svg>