<svg xmlns="http://www.w3.org/2000/svg" viewBox="0 0 81.14 77.45"><defs><style>.cls-1{fill:#0d0d0f;}</style></defs><title>IG BLACK</title><g id="Layer_2" data-name="Layer 2"><g id="Layer_1-2" data-name="Layer 1"><path class="cls-1" d="M56.11,77.45H25a25.06,25.06,0,0,1-25-25V25A25.06,25.06,0,0,1,25,0H56.11a25.06,25.06,0,0,1,25,25v27.4A25.06,25.06,0,0,1,56.11,77.45ZM25,5.56A19.48,19.48,0,0,0,5.56,25v27.4A19.48,19.48,0,0,0,25,71.88H56.11A19.48,19.48,0,0,0,75.58,52.42V25A19.48,19.48,0,0,0,56.11,5.56Z"/><path class="cls-1" d="M40.57,61A22.28,22.28,0,1,1,62.84,38.72,22.31,22.31,0,0,1,40.57,61Zm0-39A16.72,16.72,0,1,0,57.28,38.72,16.74,16.74,0,0,0,40.57,22Z"/><path class="cls-1" d="M67.13,17.13a4.63,4.63,0,1,1-4.63-4.62A4.62,4.62,0,0,1,67.13,17.13Z"/></g></g></svg>