<svg xmlns="http://www.w3.org/2000/svg" viewBox="0 0 71.44 57.91"><defs><style>.cls-1{fill:#0d0d0f;}</style></defs><title>TWITTER BLACK</title><g id="Layer_2" data-name="Layer 2"><g id="Layer_1-2" data-name="Layer 1"><path class="cls-1" d="M66.19,8.2a9.44,9.44,0,0,1-2.77.36l0-.29c1.44-1.16,5.08-4.7,5.56-6.36.21-.72,0-1,0-1l-4.64,2L60.46,4.65h0A15.53,15.53,0,0,0,49.16,0C41.08,0,34.52,5.73,34.52,12.79a19.25,19.25,0,0,0,.6,4.83c0,.37,0-.37,0,0-5.2-.14-11.88-2.28-17.82-5.29C5.58,6.39,4.85,2.28,4.85,2.28c-1.85,2-2.8,8.43-.93,13.5C5.12,19,9.22,22,9.22,22h0a12.56,12.56,0,0,1-3.76-.62A8.43,8.43,0,0,1,2.81,20C1.67,22.83,4,27.81,7.93,31.38c2.31,2.09,6.53,3.39,6.53,3.39L7.87,35C7.5,41.37,21.31,45.18,21.31,45.18h0a22.55,22.55,0,0,1-13.78,5A26.42,26.42,0,0,1,0,49.09c6.65,5.48,15.21,9.27,24.51,8.78,24.67-1.3,38.6-22.51,39.26-43.33l0,0a17.39,17.39,0,0,0,3.63-3.05,25.61,25.61,0,0,0,4-5.36S67.74,7.77,66.19,8.2Z"/></g></g></svg>