<svg xmlns="http://www.w3.org/2000/svg" viewBox="0 0 74.76 74.76"><defs><style>.cls-1{fill:#0d0d0f;}</style></defs><title>WP BLACK</title><g id="Layer_2" data-name="Layer 2"><g id="Layer_1-2" data-name="Layer 1"><path class="cls-1" d="M37.38,74.76a37.17,37.17,0,0,1-18.64-5l-14.57,5,3-15.43A36.89,36.89,0,0,1,0,37.38,37.38,37.38,0,1,1,37.38,74.76Zm-18-11.13,1.12.7a31.85,31.85,0,1,0-8.21-7.39l.78,1-1.63,8.42Z"/><path class="cls-1" d="M18.51,23s2.19-3.84,4-4.06,4.09-.21,4.71.95,3.4,8,3.4,8a2.68,2.68,0,0,1-.26,2.3A22.38,22.38,0,0,1,28,33a2,2,0,0,0,0,2.41,44,44,0,0,0,5.26,6.45c2.92,2.93,8.54,5,8.54,5a1.73,1.73,0,0,0,1.31-.41c.51-.51,3.29-4,3.29-4A1.94,1.94,0,0,1,48.74,42c1.48.67,7.89,3.87,7.89,3.87a1.38,1.38,0,0,1,.75,1.4c0,1.14-.46,3.91-1.4,4.84S52.31,55.9,48.2,55.9s-13.92-3.34-19.14-8.56S19.2,36.82,18.11,32,17.16,25,18.51,23Z"/></g></g></svg>