<svg xmlns="http://www.w3.org/2000/svg" viewBox="0 0 337.32 121.49"><defs><style>.cls-1{fill:#fff;}</style></defs><title>eros faqs</title><g id="Layer_2" data-name="Layer 2"><g id="Layer_1-2" data-name="Layer 1"><path class="cls-1" d="M168.66,121.49c-46.17,0-88.45-5.77-119-16.25C17.15,94.11,0,78.73,0,60.74,0,41.44,17.16,25.6,49.63,15,79.41,5.17,120.57,0,168.66,0s89.25,5.17,119,15c32.47,10.65,49.63,26.49,49.63,45.79,0,18-17.16,33.37-49.62,44.5C257.1,115.72,214.83,121.49,168.66,121.49Zm0-120.34c-48,0-89,5.15-118.68,14.88C18,26.53,1.14,42,1.14,60.74,1.14,78.19,18,93.2,50,104.15c30.48,10.44,72.62,16.19,118.67,16.19s88.19-5.75,118.67-16.19c32-11,48.85-26,48.85-43.41,0-18.75-16.89-34.21-48.85-44.71C257.66,6.3,216.63,1.15,168.66,1.15Z"/><path class="cls-1" d="M79.3,99.85v-.2l1-.51.27-6.94-1.09-.52v-.21h2.34l2.94,6.76,2.92-6.76h2.24v.21l-1.07.5.22,7,.88.51v.2H87v-.2l.94-.5-.13-6.26-3,7h-.57l-3-6.93-.16,6.17,1,.5v.2Z"/><path class="cls-1" d="M92.81,99.85v-.2l1-.51v-7l-1-.5v-.21H99v2.18h-.21L98,92.17H95v3h2.16l.63-1.05H98v2.78h-.2l-.63-1H95v3.27h3.41l.79-1.61h.2v2.31Zm3.36-9,1.11-1.93h1a1.11,1.11,0,0,1-.07.39.92.92,0,0,1-.35.41l-1.59,1.13Z"/><path class="cls-1" d="M102.36,99.85v-.2l1-.51v-7l-1-.5v-.21h3.27a3.64,3.64,0,0,1,2.11.55,1.78,1.78,0,0,1,.76,1.52,1.94,1.94,0,0,1-.48,1.28,3,3,0,0,1-1.28.85l2.41,3.52.84.46v.2h-1.83L105.69,96h-1.18v3.13l1,.52v.2Zm3-7.68h-.83v3.14h.9a2,2,0,0,0,1.34-.45,1.45,1.45,0,0,0,.52-1.15,1.36,1.36,0,0,0-.52-1.13A2.21,2.21,0,0,0,105.34,92.17Z"/><path class="cls-1" d="M112.78,99.91a.73.73,0,0,1-.54-.22.78.78,0,0,1-.23-.55.74.74,0,0,1,.23-.54.7.7,0,0,1,.54-.23.73.73,0,0,1,.55.23.74.74,0,0,1,.23.54.78.78,0,0,1-.23.55A.75.75,0,0,1,112.78,99.91Z"/><path class="cls-1" d="M120.59,96.84l.09-.51H124l-.09.51Z"/><path class="cls-1" d="M126.3,96.84l.09-.51h3.35l-.09.51Z"/><path class="cls-1" d="M132,96.84l.09-.51h3.34l-.09.51Z"/><path class="cls-1" d="M137.73,96.84l.09-.51h3.35l-.1.51Z"/><path class="cls-1" d="M143.45,96.84l.09-.51h3.34l-.09.51Z"/><path class="cls-1" d="M149.16,96.84l.09-.51h3.34l-.09.51Z"/><path class="cls-1" d="M154.88,96.84l.09-.51h3.34l-.09.51Z"/><path class="cls-1" d="M160.59,96.84l.09-.51H164l-.09.51Z"/><path class="cls-1" d="M166.3,96.84l.09-.51h3.34l-.09.51Z"/><path class="cls-1" d="M172,96.84l.09-.51h3.34l-.09.51Z"/><path class="cls-1" d="M177.73,96.84l.09-.51h3.34l-.09.51Z"/><path class="cls-1" d="M183.45,96.84l.09-.51h3.34l-.09.51Z"/><path class="cls-1" d="M189.16,96.84l.09-.51h3.34l-.09.51Z"/><path class="cls-1" d="M194.88,96.84l.09-.51h3.34l-.09.51Z"/><path class="cls-1" d="M200.59,96.84l.09-.51H204l-.09.51Z"/><path class="cls-1" d="M206.3,96.84l.09-.51h3.34l-.09.51Z"/><path class="cls-1" d="M212,96.84l.09-.51h3.34l-.09.51Z"/><path class="cls-1" d="M217.73,96.84l.09-.51h3.34l-.09.51Z"/><path class="cls-1" d="M223.45,96.84l.09-.51h3.34l-.09.51Z"/><path class="cls-1" d="M236,99.85v-.2l1.14-.51v-3.2l-2.82-3.85-.78-.41v-.21h3.08v.21l-.93.44v0L238,95.26l2-3.08v-.05l-.92-.45v-.21h2.69v.21l-.81.41-2.68,3.84v3.21l1.14.51v.2Z"/><path class="cls-1" d="M248.63,100a3.86,3.86,0,0,1-1.7-.36,2.64,2.64,0,0,1-1.18-1.09,3.91,3.91,0,0,1-.43-1.93V92.18l-1-.5v-.21h3.17v.21l-1,.5v4.23a3.61,3.61,0,0,0,.33,1.68,2.08,2.08,0,0,0,.9.89,3.07,3.07,0,0,0,1.27.26,2.26,2.26,0,0,0,1-.24,1.74,1.74,0,0,0,.76-.76,2.9,2.9,0,0,0,.29-1.39V92.16l-1.27-.48v-.21h3.16v.21l-1,.49V96.6a3.8,3.8,0,0,1-.43,1.93,2.62,2.62,0,0,1-1.17,1.09A3.85,3.85,0,0,1,248.63,100Z"/><path class="cls-1" d="M260,100a4.55,4.55,0,0,1-2.24-.53A3.74,3.74,0,0,1,256.3,98a4.24,4.24,0,0,1-.51-2.1,4.41,4.41,0,0,1,.35-1.72,4.73,4.73,0,0,1,.95-1.45,4.52,4.52,0,0,1,1.4-1,4,4,0,0,1,1.68-.36,5.54,5.54,0,0,1,1.08.08,4.74,4.74,0,0,1,.79.21c.24.09.47.2.71.31l.06,2.23h-.23l-.77-1.55a4.46,4.46,0,0,0-.84-.5,2.18,2.18,0,0,0-.82-.15,3,3,0,0,0-1.64.46,3.18,3.18,0,0,0-1.13,1.25,3.94,3.94,0,0,0-.41,1.82,4.79,4.79,0,0,0,.4,2.06,3.15,3.15,0,0,0,1.08,1.31,2.7,2.7,0,0,0,1.51.45,2.92,2.92,0,0,0,1.17-.2,4.7,4.7,0,0,0,.84-.43l.77-1.36H263l-.14,2c-.24.12-.5.23-.75.33a5.17,5.17,0,0,1-.88.21A6.93,6.93,0,0,1,260,100Z"/><path class="cls-1" d="M48.51,35.15c2.41,0,4.81,0,7.22,0a1.62,1.62,0,0,1,1,.41c1.53,1.47,3,3,4.53,4.47a4.09,4.09,0,0,0,1.06.55l.1-.19-5.12-5,.16-.24c.7,0,1.37-.19,2,.5,1.39,1.51,2.9,2.9,4.33,4.38a1.41,1.41,0,0,0,1.5.35L60.1,35.23a2.27,2.27,0,0,1,2.32.61c1.33,1.46,2.77,2.83,4.2,4.2a1.63,1.63,0,0,0,1,.44q12.75,0,25.5,0c.22,0,.45,0,.72,0,0-.27,0-.5,0-.72V30.93c0-1.91-.79-2.76-2.71-2.91-.93-.08-1.86-.09-2.83-.14l0-.65H121c.21,3.66.42,7.3.62,11h-.94c-.3-1.06-.54-2.11-.88-3.12a9.56,9.56,0,0,0-9.29-7c-2.31-.11-4.62-.08-6.93,0-1.94.07-2.64.89-2.64,2.84V40.5h1.39c1.57,0,3.14-.08,4.69,0a3.63,3.63,0,0,0,3.57-2.1,11.56,11.56,0,0,0,.81-2.43,6.61,6.61,0,0,0,.13-1.13h.95v5.59h23V30.8c0-1.91-.7-2.67-2.62-2.79-1-.05-1.9,0-2.89,0l0-.73a1.16,1.16,0,0,1,.24-.07c6.63,0,13.26,0,19.89,0a26.2,26.2,0,0,1,7.85,1.21,10.38,10.38,0,0,1,3.86,2.06,5.51,5.51,0,0,1,0,8.41c-.63.54-1.33,1-2.09,1.55h40.54V43H151.73l0,.13c.11.05.22.12.33.16a13.42,13.42,0,0,1,7,5.58c.94,1.44,2,2.84,3,4.2a3.42,3.42,0,0,0,2.47,1.43,2,2,0,0,0,2.3-1.48,18.56,18.56,0,0,0,.4-2.12h.81a5.51,5.51,0,0,1-3.36,6.21,9.54,9.54,0,0,1-6.78-.09,6.35,6.35,0,0,1-3.76-4.25c-.43-1.32-.68-2.7-1-4.06-1-4.18-2.36-5.31-6.66-5.55-1.27-.07-2.56,0-3.93,0,0,.27,0,.51,0,.76v9.78c0,1.82.71,2.6,2.55,2.72,1.11.07,2.22,0,3.38,0l0,.78H129.94v-.78c1,0,1.95.05,2.91,0,1.94-.12,2.6-.86,2.6-2.79,0-3.29,0-6.57,0-9.86,0-.5-.07-.74-.67-.74-7.22,0-14.43,0-21.65,0-.18,0-.36,0-.61,0V48.7h-1a11.78,11.78,0,0,0-.31-1.93,10.86,10.86,0,0,0-1.14-2.44A2.8,2.8,0,0,0,107.46,43c-2,.09-3.92,0-5.88,0-.49,0-.64.16-.64.64,0,3.43,0,6.85,0,10.27,0,1.46.62,2.32,2.08,2.41,3.51.23,7,.49,10.53-.28a9.24,9.24,0,0,0,6.65-5.77c.69-1.6,1.15-3.29,1.75-5h.8q-.53,5.92-1.05,11.92H88.36v-.78c.94,0,1.87.06,2.8,0,2-.14,2.73-1,2.73-2.95V43H93q-12.65,0-25.29,0a1.55,1.55,0,0,0-1.22.51c-1.35,1.38-2.78,2.7-4.09,4.12a2,2,0,0,1-2.14.67l5.14-5-.2-.24a1.21,1.21,0,0,0-1.39.31c-1.38,1.42-2.79,2.81-4.2,4.21-.82.82-.82.82-2,.7l5.12-5.09c-.71-.34-1.08-.21-1.44.16Q59,45.66,56.76,47.89a1.3,1.3,0,0,1-.82.4c-2.48,0-4.95,0-7.43,0v-.14a5.76,5.76,0,0,0,.53-.42c1.2-1.18,2.37-2.37,3.57-3.55.34-.33.71-.64,1.06-1l-.29-.07a1.94,1.94,0,0,1-.21-.77c.11-.68-.41-1.49.34-2l-5-5.09Zm94.05,5.35h.85c3.08,0,6.16-.06,9.24,0a2.29,2.29,0,0,0,2.16-1.19,8,8,0,0,0,1.12-5.29,5.79,5.79,0,0,0-4.7-5.69,17.83,17.83,0,0,0-6.67-.29c-1.46.18-2,.93-2,2.44q0,4.68,0,9.36C142.51,40.05,142.54,40.23,142.56,40.5Z"/><path class="cls-1" d="M173,39.54c.2-.72.35-1.4.59-2a15.89,15.89,0,0,1,9.37-9.34c7-2.85,13.81-2.22,20.06,2.16A14.18,14.18,0,0,1,209.05,40a.69.69,0,0,0,.48.47c3,0,5.93,0,8.9,0,0,0,.11-.05.2-.08-.36-.43-.72-.81-1-1.24a7.17,7.17,0,0,1,1.81-9.76,14.64,14.64,0,0,1,8.68-2.65,20.71,20.71,0,0,1,9.11,1.84c.34.15.69.29,1,.41,1.89.64,3,.21,3.77-1.62a.86.86,0,0,1,1.18-.58c.15,3.83.3,7.67.44,11.5-.73.26-1,0-1.27-.65-1.58-4.69-4.49-8.12-9.4-9.54a13.57,13.57,0,0,0-8.52.05,7.76,7.76,0,0,0-2.29,1.3,4.31,4.31,0,0,0,.36,7,15.49,15.49,0,0,0,5.05,2c2.87.7,5.76,1.34,8.65,2a3.91,3.91,0,0,0,.84.05h19.61c.2,0,.41,0,.65,0l.09-.8h3.23c1.43,0,2.85,0,4.27,0,1.12,0,1.51-.35,1.71-1.44.11-.64.17-1.29.29-1.93a1.39,1.39,0,0,1,.28-.46c.11.15.29.28.3.44.1.92.13,1.85.23,2.78.05.46,0,1.06.67,1.13.46,0,1.09-.6,1.13-1.17.08-1,.09-2,.14-2.93,0-.14,0-.28,0-.49.79,0,1.58,0,2.36,0a95.72,95.72,0,0,1,14.53,1.52,21.25,21.25,0,0,1,8.85,4.63,20.62,20.62,0,0,1-10.26,5,119.34,119.34,0,0,1-15,1.28,4.84,4.84,0,0,1-.64-.05c0-1,0-2,0-3.07a1.42,1.42,0,0,0-.71-1.35c-.55-.31-.91-.2-1,.42s-.16,1.43-.23,2.15c0,.41,0,.84-.1,1.25,0,.13-.19.25-.29.37-.1-.12-.26-.24-.28-.37-.12-.64-.19-1.29-.29-1.94-.19-1.16-.52-1.51-1.69-1.53-2.24,0-4.48,0-6.72,0h-.79l-.11-.78H242.77a18.72,18.72,0,0,1,2,2.5,7.24,7.24,0,0,1-1.73,9,13.89,13.89,0,0,1-8.18,3.07,29.19,29.19,0,0,1-12.47-2,11.47,11.47,0,0,0-1.13-.37A2.74,2.74,0,0,0,217.61,57c-.29.66-.29.66-1.12.55-.14-3.84-.29-7.69-.43-11.53.7-.24,1,0,1.25.64a13.23,13.23,0,0,0,6.83,8,17.75,17.75,0,0,0,13.06,1.75,6.13,6.13,0,0,0,3.37-2.13,4.25,4.25,0,0,0-.74-6.24,14,14,0,0,0-4.07-1.93c-3.07-.87-6.22-1.42-9.29-2.29A21.88,21.88,0,0,0,220,43c-3.32.05-6.63,0-10,0h-.71a39.05,39.05,0,0,1-1.06,4.14A15.53,15.53,0,0,1,199,56.31c-7.35,2.88-14.33,2.12-20.69-2.67A13.79,13.79,0,0,1,173,45c-.07-.33-.09-.68-.14-1.06h7.89a26.57,26.57,0,0,0,.29,2.67,29.51,29.51,0,0,0,1.15,4.58c1.74,4.56,5.27,6.23,9.7,5.92s7-2.44,8.21-6.6a29.44,29.44,0,0,0,0-16.46,8.93,8.93,0,0,0-4.73-5.94c-3-1.44-8.1-1.33-10.87,1.3a10.23,10.23,0,0,0-2.87,5.1,42.06,42.06,0,0,0-.73,4.33c-.06.5-.16.73-.73.72-2.17,0-4.34,0-6.52,0C173.45,39.58,173.27,39.56,173,39.54Z"/><path class="cls-1" d="M209.71,62.5v.58h-83a1.51,1.51,0,0,1-.05-.28c0-.09,0-.18,0-.3Z"/><path class="cls-1" d="M209.71,73.74v.58h-83a1.77,1.77,0,0,1-.05-.29c0-.09,0-.18,0-.29Z"/><path class="cls-1" d="M188.37,68.09c1.14.18,1.25.11,2-1.15v2.67a1.51,1.51,0,0,0-2-1.17,19.22,19.22,0,0,0,0,2,.82.82,0,0,0,.52.52,2.3,2.3,0,0,0,2.94-1.58.84.84,0,0,1,.38-.5l-.19,2.3h-6.49c.8-.14.84-.67.82-1.31,0-1,0-2,0-3.07,0-.6-.05-1.08-.8-1.16h6.33l.09,2-.17,0a3.49,3.49,0,0,1-.15-.34,2.16,2.16,0,0,0-2.74-1.54.82.82,0,0,0-.54.5A15.27,15.27,0,0,0,188.37,68.09Z"/><path class="cls-1" d="M130.14,71.13l-.09-1.91.15,0,.3.48A3.23,3.23,0,0,0,133.92,71c.32-.1.74-.47.76-.74s-.36-.69-.66-.81a15.43,15.43,0,0,0-1.89-.49,5.77,5.77,0,0,1-1.24-.47,1.44,1.44,0,0,1,0-2.56,4,4,0,0,1,3.26-.15.88.88,0,0,0,1.27-.44v2.24a3,3,0,0,1-.21-.26,2.56,2.56,0,0,0-3.08-1.55c-.33.07-.59.43-.87.66.23.28.4.7.7.81.73.28,1.53.4,2.29.62,1.26.37,1.75.94,1.65,1.83a1.89,1.89,0,0,1-2,1.5,9.65,9.65,0,0,1-2.27-.21c-.51-.1-1-.36-1.38.33Z"/><path class="cls-1" d="M206,65.75v2c-.17-.31-.26-.46-.33-.61a2.68,2.68,0,0,0-3.22-1.28c-.26.09-.6.4-.62.63a1,1,0,0,0,.51.72c.6.24,1.25.35,1.87.53a7.71,7.71,0,0,1,1.44.52,1.43,1.43,0,0,1,0,2.62,4.2,4.2,0,0,1-3.4.16,1.2,1.2,0,0,0-1.54.32V69a3.07,3.07,0,0,0,2.38,2,4.53,4.53,0,0,0,1.64-.07.85.85,0,0,0,.52-.63,1,1,0,0,0-.47-.74c-.62-.25-1.29-.36-1.94-.55a6.61,6.61,0,0,1-1.37-.5,1.41,1.41,0,0,1,0-2.54,4,4,0,0,1,3.18-.22A5.77,5.77,0,0,0,206,65.75Z"/><path class="cls-1" d="M173.31,65.82c-1.71-.24-2.08.88-2.28,2.18l-.22-.11.1-2.25h6.79l.11,2.23-.22.14c-.22-1.3-.59-2.42-2.3-2.2v2.06c0,.72,0,1.44,0,2.16s.21,1,.91,1a.28.28,0,0,1,.22.14H172.1c1.21-.32,1.21-.32,1.21-1.53Z"/><path class="cls-1" d="M143.81,65.63h3.69c-.94,0-1,.66-.93,1.36s0,1.5,0,2.24c0,1.06.61,1.56,1.74,1.55s1.8-.53,1.84-1.55c0-.73,0-1.45,0-2.17s-.07-1.28-.91-1.41h2.16c-.9.16-.93.84-.92,1.54s0,1.35,0,2A1.77,1.77,0,0,1,149.25,71a4.93,4.93,0,0,1-3.62-.16,1.63,1.63,0,0,1-1-1.66c0-.79,0-1.59,0-2.38C144.63,66.22,144.57,65.71,143.81,65.63Z"/><path class="cls-1" d="M163,65.65c-.67.07-.81.45-.8,1,0,1.07,0,2.13,0,3.2,0,.62,0,1.18.81,1.28h-3.65c.27-.17.65-.27.78-.51a2.45,2.45,0,0,0,.07-1c0-1,0-1.91,0-2.86,0-.63-.11-1.06-.83-1.12Z"/></g></g></svg>