<svg xmlns="http://www.w3.org/2000/svg" viewBox="0 0 299.92 62.85"><defs><style>.cls-1{fill:#0a0a0a;}</style></defs><title>Asset 2</title><g id="Layer_2" data-name="Layer 2"><g id="Layer_1-2" data-name="Layer 1"><path class="cls-1" d="M96.24,62.85l-.08-1.61H203.75v1.61Z"/><path class="cls-1" d="M203.71,46v1.5H96.24c0-.27-.06-.5-.06-.74s0-.47,0-.76Z"/><path class="cls-1" d="M176.09,53.92c1.48.24,1.62.16,2.55-1.48v3.45a2,2,0,0,0-2.56-1.51,25.21,25.21,0,0,0,0,2.61,1,1,0,0,0,.67.66,3,3,0,0,0,3.8-2,1.13,1.13,0,0,1,.5-.65c-.08,1-.16,1.92-.25,3h-8.39c1-.19,1.08-.88,1.05-1.7,0-1.33,0-2.65,0-4,0-.78-.06-1.4-1-1.5h8.19l.12,2.58-.22,0c-.06-.14-.14-.28-.19-.43a2.81,2.81,0,0,0-3.55-2,1,1,0,0,0-.7.66A19.64,19.64,0,0,0,176.09,53.92Z"/><path class="cls-1" d="M100.73,57.86l-.12-2.47.18-.06.39.62a4.2,4.2,0,0,0,4.43,1.74c.41-.13,1-.6,1-.95s-.47-.89-.86-1.05a22,22,0,0,0-2.45-.64,7.55,7.55,0,0,1-1.6-.61,1.85,1.85,0,0,1,0-3.3,5.07,5.07,0,0,1,4.21-.21c.58.19,1.11.36,1.65-.56v2.89a2.19,2.19,0,0,1-.27-.33,3.33,3.33,0,0,0-4-2c-.41.08-.75.55-1.12.84.29.37.52.92.9,1.06,1,.36,2,.51,3,.8,1.63.48,2.27,1.22,2.14,2.36a2.45,2.45,0,0,1-2.59,1.95,12.12,12.12,0,0,1-2.94-.28c-.66-.12-1.28-.46-1.79.43Z"/><path class="cls-1" d="M199,50.9v2.53c-.22-.39-.33-.58-.43-.78A3.47,3.47,0,0,0,194.36,51a1.32,1.32,0,0,0-.8.82,1.19,1.19,0,0,0,.65.92,25,25,0,0,0,2.43.7,9.16,9.16,0,0,1,1.86.67,1.84,1.84,0,0,1,0,3.38,5.38,5.38,0,0,1-4.39.22,1.55,1.55,0,0,0-2,.41v-3a4,4,0,0,0,3.08,2.55,5.83,5.83,0,0,0,2.12-.1,1.08,1.08,0,0,0,.67-.81,1.22,1.22,0,0,0-.6-.95c-.8-.33-1.68-.47-2.51-.72a8.89,8.89,0,0,1-1.77-.64,1.83,1.83,0,0,1,0-3.29,5.22,5.22,0,0,1,4.12-.28A7.63,7.63,0,0,0,199,50.9Z"/><path class="cls-1" d="M156.6,51c-2.21-.31-2.69,1.14-3,2.82l-.28-.15.13-2.9h8.79l.14,2.89-.28.17c-.28-1.68-.76-3.13-3-2.84v2.66c0,.94.05,1.87,0,2.8s.27,1.32,1.17,1.29a.35.35,0,0,1,.3.17H155c1.57-.42,1.57-.42,1.57-2Z"/><path class="cls-1" d="M118.41,50.75h4.79c-1.22,0-1.26.85-1.22,1.76s0,1.93,0,2.89c0,1.37.78,2,2.25,2s2.34-.69,2.38-2c0-.94,0-1.87,0-2.81s-.09-1.65-1.19-1.82h2.8c-1.16.21-1.2,1.08-1.18,2s0,1.75,0,2.63a2.32,2.32,0,0,1-1.62,2.36,6.37,6.37,0,0,1-4.68-.21,2.09,2.09,0,0,1-1.34-2.15c0-1,0-2,0-3.08C119.47,51.51,119.39,50.84,118.41,50.75Z"/><path class="cls-1" d="M143.19,50.77c-.86.09-1.05.58-1,1.33,0,1.38,0,2.77,0,4.15,0,.8,0,1.53,1,1.65h-4.73c.35-.21.85-.35,1-.66a3,3,0,0,0,.1-1.32c0-1.24,0-2.47,0-3.7,0-.82-.16-1.37-1.09-1.45Z"/><path class="cls-1" d="M0,11.29c3.11,0,6.22,0,9.34.05a2.14,2.14,0,0,1,1.32.54c2,1.9,3.89,3.88,5.87,5.79a5.36,5.36,0,0,0,1.37.7l.13-.25L11.4,11.65l.21-.31c.91,0,1.77-.24,2.61.66,1.8,1.94,3.76,3.75,5.6,5.66a1.85,1.85,0,0,0,1.95.46L15,11.4a2.93,2.93,0,0,1,3,.78c1.73,1.89,3.59,3.67,5.44,5.44a2.06,2.06,0,0,0,1.31.57c11,0,11.56,0,22.56,0,.29,0,.59,0,.94,0,0-.35,0-.65,0-.94q0-5.7,0-11.4c0-2.48-1-3.58-3.51-3.77-1.2-.1-2.4-.12-3.66-.17l0-.84H83.4c.27,4.73.54,9.43.81,14.19H83c-.38-1.38-.7-2.73-1.13-4-1.89-5.71-6-8.86-12-9.13-3-.13-6-.1-9,0-2.52.08-3.42,1.15-3.42,3.67V18.21h1.81c2,0,4-.09,6.07,0a4.7,4.7,0,0,0,4.62-2.72,14.47,14.47,0,0,0,1-3.14,8.23,8.23,0,0,0,.17-1.46h1.23v7.23h29.72v-1c0-3.83,0-7.65,0-11.48,0-2.47-.9-3.46-3.39-3.61C97.48,2,96.24,2,95,2l0-.94a1.14,1.14,0,0,1,.3-.1c8.59,0,17.17,0,25.75.06a33.88,33.88,0,0,1,10.17,1.56,13.46,13.46,0,0,1,5,2.66,7.13,7.13,0,0,1-.06,10.89c-.8.7-1.71,1.28-2.7,2h52.48v3.26H123.17l0,.16a3.36,3.36,0,0,0,.42.22A17.33,17.33,0,0,1,132.66,29c1.23,1.86,2.52,3.68,3.89,5.44a4.47,4.47,0,0,0,3.2,1.85,2.57,2.57,0,0,0,3-1.93,25.48,25.48,0,0,0,.52-2.73h1a7.14,7.14,0,0,1-4.35,8,12.44,12.44,0,0,1-8.77-.12,8.19,8.19,0,0,1-4.87-5.51c-.56-1.71-.89-3.49-1.32-5.25-1.32-5.4-3-6.87-8.61-7.18-1.65-.1-3.32,0-5.08,0,0,.35-.06.67-.06,1V35.28c0,2.35.92,3.36,3.29,3.51,1.44.1,2.89,0,4.39,0l0,1H95v-1c1.27,0,2.53.07,3.78,0,2.51-.16,3.36-1.12,3.36-3.62,0-4.25,0-8.5,0-12.75,0-.65-.09-1-.87-1-9.34,0-18.67,0-28,0-.24,0-.48,0-.8.06v7.29H71.18a14.07,14.07,0,0,0-.41-2.49,13.83,13.83,0,0,0-1.46-3.17,3.65,3.65,0,0,0-3.45-1.72c-2.53.12-5.08.05-7.61,0-.64,0-.83.2-.83.83,0,4.43,0,8.86,0,13.29,0,1.88.79,3,2.69,3.12,4.55.29,9.13.64,13.63-.37a11.93,11.93,0,0,0,8.61-7.47c.88-2.06,1.49-4.25,2.25-6.48h1c-.45,5.12-.9,10.25-1.36,15.44H41.14v-1c1.22,0,2.42.07,3.62,0,2.58-.18,3.53-1.25,3.53-3.82,0-4.13,0-8.26,0-12.39V21.48H47.15c-10.91,0-11.38,0-22.29,0a2,2,0,0,0-1.58.65c-1.75,1.8-3.59,3.5-5.29,5.34a2.65,2.65,0,0,1-2.78.87l6.66-6.43-.26-.31a1.56,1.56,0,0,0-1.79.4c-1.79,1.84-3.62,3.64-5.44,5.45-1.07,1.07-1.07,1.07-2.63.91l6.63-6.59a1.4,1.4,0,0,0-1.87.21c-1.93,2-3.87,3.9-5.83,5.81a1.75,1.75,0,0,1-1.07.52c-3.2,0-6.41,0-9.61,0v-.18c.23-.18.48-.34.69-.54C2.23,26.05,3.76,24.51,5.3,23c.44-.43.92-.82,1.38-1.23l-.38-.09c-.1-.34-.33-.69-.28-1,.15-.87-.53-1.93.45-2.6L0,11.47Zm111.29,6.92h1.1c4,0,8-.07,12,0a3,3,0,0,0,2.81-1.53,10.45,10.45,0,0,0,1.44-6.85c-.3-3.95-2.3-6.38-6.09-7.37a23,23,0,0,0-8.63-.37c-1.89.23-2.64,1.21-2.64,3.15,0,4,0,8.08,0,12.12C111.23,17.63,111.26,17.87,111.29,18.21Z"/><path class="cls-1" d="M227.57,18.21h30v3.35H235a23.87,23.87,0,0,1,2.62,3.23,9.36,9.36,0,0,1-2.24,11.64,18,18,0,0,1-10.58,4,37.55,37.55,0,0,1-16.14-2.58c-.49-.17-1-.34-1.47-.48-2.31-.62-3.76.06-4.74,2.26-.38.85-.38.85-1.45.71l-.57-14.92c.91-.31,1.33-.07,1.62.83a17.24,17.24,0,0,0,8.84,10.29c5.34,2.75,11,3.84,16.91,2.26A8,8,0,0,0,232.14,36a5.51,5.51,0,0,0-1-8.08,17.68,17.68,0,0,0-5.26-2.5c-4-1.13-8.06-1.84-12-3a28.67,28.67,0,0,0-8.39-1c-4.29.07-8.58,0-12.87,0h-.93a49.11,49.11,0,0,1-1.37,5.35,20.08,20.08,0,0,1-12,11.85c-9.51,3.73-18.55,2.75-26.78-3.46a17.84,17.84,0,0,1-6.9-11.13c-.08-.43-.12-.87-.18-1.37h10.21a33.1,33.1,0,0,0,.39,3.45,37.12,37.12,0,0,0,1.48,5.94c2.24,5.89,6.82,8.06,12.56,7.65,5.58-.4,9.06-3.15,10.62-8.54a38,38,0,0,0,0-21.31,11.61,11.61,0,0,0-6.12-7.69C169.76.37,163.12.51,159.52,3.91a13.18,13.18,0,0,0-3.71,6.61,55,55,0,0,0-.94,5.6c-.13,1-.33,1.14-2.57.7a14.59,14.59,0,0,0-6,.1,4.14,4.14,0,0,1-1.65,0c.26-.93.45-1.81.76-2.64A20.52,20.52,0,0,1,157.51,2.24c9.11-3.69,17.87-2.86,26,2.8a18.33,18.33,0,0,1,7.85,12.53c0,.24.41.61.62.61,3.84,0,7.68,0,11.52,0a.92.92,0,0,0,.27-.1c-.47-.56-.94-1.05-1.34-1.61a9.26,9.26,0,0,1,2.35-12.62A18.85,18.85,0,0,1,216,.43a26.89,26.89,0,0,1,11.79,2.38c.44.2.89.38,1.34.54A4.07,4.07,0,0,0,234,1.16c.38-.81.88-.93,2.05-.47.3,6.78.34,7.63.64,14.42-1.42.7-1.93.49-2.29-.57-2-6.07-5.8-10.51-12.15-12.35a17.66,17.66,0,0,0-11,.07,9.82,9.82,0,0,0-3,1.68,5.57,5.57,0,0,0,.48,9,19.82,19.82,0,0,0,6.53,2.58c3.72.91,7.46,1.73,11.2,2.58A4.87,4.87,0,0,0,227.57,18.21Z"/><path class="cls-1" d="M288.46,13.83a122.3,122.3,0,0,0-18.59-2.09c-.29,0-.6,0-.92,0H262.2v4.69c-.33.49-.87.67-1.79.69-1.85,0-3.69,0-5.53,0H250.7c0,.36-.08.68-.12,1-.32,0-.58.05-.85.05h-5.29v3.35h6.14l.14,1h1c2.9,0,5.8,0,8.7,0,.91,0,1.43.19,1.75.67V28h7.67a115.44,115.44,0,0,0,16.77-1.73,26.67,26.67,0,0,0,13.28-6.42C296.47,17.07,292.84,14.75,288.46,13.83Z"/></g></g></svg>